<svg width="25" height="25" viewBox="0 0 25 25" fill="none" xmlns="http://www.w3.org/2000/svg">
<path d="M23.6245 14.2037C23.5457 14.2628 23.456 14.3058 23.3606 14.3302C23.2652 14.3547 23.1659 14.3601 23.0684 14.3461C22.9709 14.3322 22.8771 14.2992 22.7924 14.249C22.7076 14.1989 22.6336 14.1325 22.5745 14.0537C22.1225 13.4461 21.534 12.953 20.8567 12.6144C20.1793 12.2757 19.4318 12.1007 18.6745 12.1037C18.527 12.1037 18.3828 12.0602 18.2599 11.9786C18.137 11.8971 18.0409 11.7811 17.9836 11.6452C17.9446 11.553 17.9246 11.4538 17.9246 11.3537C17.9246 11.2535 17.9446 11.1544 17.9836 11.0621C18.0409 10.9262 18.137 10.8103 18.2599 10.7287C18.3828 10.6472 18.527 10.6037 18.6745 10.6037C19.0953 10.6036 19.5077 10.4856 19.8648 10.2629C20.2219 10.0403 20.5094 9.72195 20.6946 9.3441C20.8798 8.96624 20.9554 8.54401 20.9127 8.12537C20.87 7.70672 20.7107 7.30844 20.453 6.97577C20.1953 6.64309 19.8495 6.38936 19.4548 6.24339C19.0601 6.09741 18.6324 6.06505 18.2202 6.14998C17.8081 6.23491 17.428 6.43372 17.1231 6.72383C16.8183 7.01394 16.601 7.38373 16.4958 7.79118C16.4711 7.8866 16.428 7.97623 16.3687 8.05495C16.3094 8.13368 16.2352 8.19997 16.1504 8.25002C16.0655 8.30008 15.9716 8.33293 15.874 8.34669C15.7764 8.36046 15.6771 8.35487 15.5817 8.33025C15.4863 8.30562 15.3966 8.26245 15.3179 8.20319C15.2392 8.14392 15.1729 8.06974 15.1228 7.98486C15.0728 7.89998 15.0399 7.80607 15.0262 7.7085C15.0124 7.61092 15.018 7.5116 15.0426 7.41618C15.1886 6.85116 15.4645 6.32802 15.8483 5.88839C16.2321 5.44875 16.7132 5.10475 17.2533 4.88376C17.7934 4.66277 18.3777 4.57089 18.9595 4.61543C19.5414 4.65997 20.1049 4.8397 20.6051 5.14032C21.1053 5.44094 21.5284 5.85415 21.8408 6.34707C22.1532 6.84 22.3462 7.39903 22.4046 7.97969C22.4629 8.56035 22.3849 9.14661 22.1768 9.69182C21.9687 10.237 21.6362 10.7261 21.2058 11.1202C22.2256 11.5618 23.1121 12.2625 23.7773 13.1527C23.8364 13.2317 23.8793 13.3216 23.9036 13.4172C23.9279 13.5128 23.9331 13.6123 23.9189 13.7099C23.9048 13.8075 23.8714 13.9014 23.8209 13.9861C23.7704 14.0709 23.7036 14.1448 23.6245 14.2037ZM18.5733 19.9787C18.6275 20.064 18.664 20.1595 18.6804 20.2593C18.6968 20.3591 18.6928 20.4612 18.6688 20.5595C18.6447 20.6577 18.601 20.7501 18.5403 20.831C18.4797 20.9119 18.4032 20.9797 18.3156 21.0304C18.2281 21.081 18.1312 21.1134 18.0308 21.1256C17.9303 21.1378 17.8285 21.1295 17.7313 21.1013C17.6342 21.0732 17.5438 21.0256 17.4655 20.9616C17.3872 20.8975 17.3226 20.8183 17.2758 20.7287C16.8033 19.9287 16.1304 19.2657 15.3235 18.8051C14.5166 18.3445 13.6036 18.1023 12.6745 18.1023C11.7454 18.1023 10.8324 18.3445 10.0255 18.8051C9.21858 19.2657 8.54571 19.9287 8.07325 20.7287C8.02636 20.8183 7.96183 20.8975 7.88354 20.9616C7.80524 21.0256 7.7148 21.0732 7.61765 21.1013C7.52051 21.1295 7.41866 21.1378 7.31825 21.1256C7.21784 21.1134 7.12093 21.081 7.03335 21.0304C6.94578 20.9797 6.86935 20.9119 6.80866 20.831C6.74798 20.7501 6.70429 20.6577 6.68022 20.5595C6.65616 20.4612 6.65221 20.3591 6.66863 20.2593C6.68505 20.1595 6.72149 20.064 6.77575 19.9787C7.50287 18.7293 8.61156 17.7462 9.93888 17.1737C9.192 16.6018 8.64309 15.8103 8.36931 14.9104C8.09554 14.0105 8.11066 13.0474 8.41255 12.1565C8.71444 11.2656 9.28792 10.4917 10.0524 9.94357C10.8168 9.39545 11.7338 9.10068 12.6745 9.10068C13.6152 9.10068 14.5322 9.39545 15.2966 9.94357C16.0611 10.4917 16.6346 11.2656 16.9365 12.1565C17.2383 13.0474 17.2535 14.0105 16.9797 14.9104C16.7059 15.8103 16.157 16.6018 15.4101 17.1737C16.7374 17.7462 17.8461 18.7293 18.5733 19.9787ZM12.6745 16.6037C13.2678 16.6037 13.8479 16.4277 14.3412 16.0981C14.8346 15.7684 15.2191 15.2999 15.4461 14.7517C15.6732 14.2036 15.7326 13.6004 15.6169 13.0184C15.5011 12.4365 15.2154 11.9019 14.7958 11.4824C14.3763 11.0628 13.8417 10.7771 13.2598 10.6613C12.6778 10.5456 12.0746 10.605 11.5265 10.832C10.9783 11.0591 10.5097 11.4436 10.1801 11.937C9.85045 12.4303 9.6745 13.0103 9.6745 13.6037C9.6745 14.3993 9.99057 15.1624 10.5532 15.725C11.1158 16.2876 11.8789 16.6037 12.6745 16.6037ZM7.4245 11.3537C7.4245 11.1548 7.34548 10.964 7.20483 10.8234C7.06418 10.6827 6.87341 10.6037 6.6745 10.6037C6.25368 10.6036 5.84131 10.4856 5.48422 10.2629C5.12713 10.0403 4.83964 9.72195 4.65441 9.3441C4.46917 8.96624 4.39361 8.54401 4.43631 8.12537C4.47901 7.70672 4.63827 7.30844 4.89598 6.97577C5.15369 6.64309 5.49953 6.38936 5.89422 6.24339C6.28891 6.09741 6.71662 6.06505 7.12878 6.14998C7.54094 6.23491 7.92102 6.43372 8.22585 6.72383C8.53068 7.01394 8.74805 7.38373 8.85325 7.79118C8.90298 7.98388 9.02722 8.14893 9.19864 8.25002C9.37006 8.35112 9.57462 8.37997 9.76731 8.33025C9.96001 8.28052 10.1251 8.15628 10.2262 7.98486C10.3272 7.81344 10.3561 7.60888 10.3064 7.41618C10.1604 6.85116 9.88448 6.32802 9.5007 5.88839C9.11692 5.44875 8.63583 5.10475 8.09571 4.88376C7.55559 4.66277 6.97134 4.57089 6.38946 4.61543C5.80758 4.65997 5.24413 4.8397 4.74393 5.14032C4.24374 5.44094 3.82061 5.85415 3.50821 6.34707C3.19581 6.84 3.00277 7.39903 2.94444 7.97969C2.88611 8.56035 2.96411 9.14661 3.17223 9.69182C3.38035 10.237 3.71284 10.7261 4.14325 11.1202C3.12445 11.5622 2.23892 12.2629 1.5745 13.1527C1.45503 13.3119 1.40367 13.5119 1.43171 13.7089C1.45975 13.9059 1.5649 14.0837 1.72403 14.2032C1.88316 14.3227 2.08324 14.3741 2.28024 14.346C2.47724 14.318 2.65503 14.2128 2.7745 14.0537C3.22655 13.4461 3.81495 12.953 4.49234 12.6144C5.16972 12.2757 5.91717 12.1007 6.6745 12.1037C6.87341 12.1037 7.06418 12.0247 7.20483 11.884C7.34548 11.7434 7.4245 11.5526 7.4245 11.3537Z" fill="white"/>
</svg>
