<svg width="33" height="33" viewBox="0 0 33 33" fill="none" xmlns="http://www.w3.org/2000/svg">
<path d="M13.6745 5.10367H7.6745C7.14407 5.10367 6.63536 5.31438 6.26029 5.68945C5.88521 6.06453 5.6745 6.57324 5.6745 7.10367V13.1037C5.6745 13.6341 5.88521 14.1428 6.26029 14.5179C6.63536 14.893 7.14407 15.1037 7.6745 15.1037H13.6745C14.2049 15.1037 14.7136 14.893 15.0887 14.5179C15.4638 14.1428 15.6745 13.6341 15.6745 13.1037V7.10367C15.6745 6.57324 15.4638 6.06453 15.0887 5.68945C14.7136 5.31438 14.2049 5.10367 13.6745 5.10367ZM13.6745 13.1037H7.6745V7.10367H13.6745V13.1037ZM25.6745 5.10367H19.6745C19.1441 5.10367 18.6354 5.31438 18.2603 5.68945C17.8852 6.06453 17.6745 6.57324 17.6745 7.10367V13.1037C17.6745 13.6341 17.8852 14.1428 18.2603 14.5179C18.6354 14.893 19.1441 15.1037 19.6745 15.1037H25.6745C26.2049 15.1037 26.7136 14.893 27.0887 14.5179C27.4638 14.1428 27.6745 13.6341 27.6745 13.1037V7.10367C27.6745 6.57324 27.4638 6.06453 27.0887 5.68945C26.7136 5.31438 26.2049 5.10367 25.6745 5.10367ZM25.6745 13.1037H19.6745V7.10367H25.6745V13.1037ZM13.6745 17.1037H7.6745C7.14407 17.1037 6.63536 17.3144 6.26029 17.6895C5.88521 18.0645 5.6745 18.5732 5.6745 19.1037V25.1037C5.6745 25.6341 5.88521 26.1428 6.26029 26.5179C6.63536 26.893 7.14407 27.1037 7.6745 27.1037H13.6745C14.2049 27.1037 14.7136 26.893 15.0887 26.5179C15.4638 26.1428 15.6745 25.6341 15.6745 25.1037V19.1037C15.6745 18.5732 15.4638 18.0645 15.0887 17.6895C14.7136 17.3144 14.2049 17.1037 13.6745 17.1037ZM13.6745 25.1037H7.6745V19.1037H13.6745V25.1037ZM25.6745 17.1037H19.6745C19.1441 17.1037 18.6354 17.3144 18.2603 17.6895C17.8852 18.0645 17.6745 18.5732 17.6745 19.1037V25.1037C17.6745 25.6341 17.8852 26.1428 18.2603 26.5179C18.6354 26.893 19.1441 27.1037 19.6745 27.1037H25.6745C26.2049 27.1037 26.7136 26.893 27.0887 26.5179C27.4638 26.1428 27.6745 25.6341 27.6745 25.1037V19.1037C27.6745 18.5732 27.4638 18.0645 27.0887 17.6895C26.7136 17.3144 26.2049 17.1037 25.6745 17.1037ZM25.6745 25.1037H19.6745V19.1037H25.6745V25.1037Z" fill="#FAFAFA"/>
</svg>
