<svg width="25" height="25" viewBox="0 0 25 25" fill="none" xmlns="http://www.w3.org/2000/svg">
<path d="M23.6116 11.7928C23.5788 11.7187 22.7847 9.95718 21.0194 8.19187C18.6672 5.83968 15.6963 4.59656 12.4263 4.59656C9.15626 4.59656 6.18532 5.83968 3.83313 8.19187C2.06782 9.95718 1.27001 11.7216 1.24094 11.7928C1.1983 11.8887 1.17627 11.9925 1.17627 12.0975C1.17627 12.2025 1.1983 12.3063 1.24094 12.4022C1.27376 12.4762 2.06782 14.2369 3.83313 16.0022C6.18532 18.3534 9.15626 19.5966 12.4263 19.5966C15.6963 19.5966 18.6672 18.3534 21.0194 16.0022C22.7847 14.2369 23.5788 12.4762 23.6116 12.4022C23.6542 12.3063 23.6762 12.2025 23.6762 12.0975C23.6762 11.9925 23.6542 11.8887 23.6116 11.7928ZM12.4263 18.0966C9.54063 18.0966 7.01969 17.0475 4.93282 14.9794C4.07655 14.1278 3.34806 13.1568 2.77001 12.0966C3.3479 11.0362 4.07641 10.0652 4.93282 9.21375C7.01969 7.14562 9.54063 6.09656 12.4263 6.09656C15.3119 6.09656 17.8328 7.14562 19.9197 9.21375C20.7776 10.065 21.5077 11.036 22.0872 12.0966C21.4113 13.3584 18.4666 18.0966 12.4263 18.0966ZM12.4263 7.59656C11.5362 7.59656 10.6662 7.86048 9.92619 8.35494C9.18617 8.84941 8.60939 9.55221 8.2688 10.3745C7.9282 11.1967 7.83909 12.1015 8.01272 12.9745C8.18636 13.8474 8.61494 14.6492 9.24428 15.2785C9.87361 15.9079 10.6754 16.3365 11.5484 16.5101C12.4213 16.6837 13.3261 16.5946 14.1483 16.254C14.9706 15.9134 15.6734 15.3366 16.1679 14.5966C16.6623 13.8566 16.9263 12.9866 16.9263 12.0966C16.925 10.9035 16.4505 9.75959 15.6069 8.91595C14.7632 8.0723 13.6194 7.5978 12.4263 7.59656ZM12.4263 15.0966C11.8329 15.0966 11.2529 14.9206 10.7595 14.591C10.2662 14.2613 9.88168 13.7928 9.65462 13.2446C9.42756 12.6964 9.36815 12.0932 9.4839 11.5113C9.59966 10.9293 9.88538 10.3948 10.3049 9.97524C10.7245 9.55568 11.259 9.26996 11.841 9.1542C12.4229 9.03845 13.0261 9.09786 13.5743 9.32492C14.1225 9.55198 14.591 9.9365 14.9207 10.4298C15.2503 10.9232 15.4263 11.5032 15.4263 12.0966C15.4263 12.8922 15.1102 13.6553 14.5476 14.2179C13.985 14.7805 13.2219 15.0966 12.4263 15.0966Z" fill="#0F0F0F"/>
</svg>
