<svg width="25" height="25" viewBox="0 0 25 25" fill="none" xmlns="http://www.w3.org/2000/svg">
<path d="M13.4245 7.60367V11.679L16.8108 13.7105C16.9813 13.813 17.1042 13.979 17.1524 14.172C17.2006 14.3651 17.1701 14.5693 17.0676 14.7399C16.9652 14.9105 16.7992 15.0334 16.6061 15.0815C16.4131 15.1297 16.2088 15.0992 16.0383 14.9968L12.2882 12.7468C12.1773 12.6801 12.0854 12.5858 12.0217 12.4731C11.9579 12.3604 11.9245 12.2331 11.9245 12.1037V7.60367C11.9245 7.40475 12.0035 7.21399 12.1442 7.07334C12.2848 6.93268 12.4756 6.85367 12.6745 6.85367C12.8734 6.85367 13.0642 6.93268 13.2048 7.07334C13.3455 7.21399 13.4245 7.40475 13.4245 7.60367ZM12.6745 3.10367C11.4914 3.10072 10.3194 3.33245 9.22643 3.78544C8.13345 4.23843 7.14116 4.9037 6.307 5.74273C5.62544 6.43273 5.01981 7.09648 4.4245 7.79117V6.10367C4.4245 5.90475 4.34548 5.71399 4.20483 5.57334C4.06418 5.43268 3.87341 5.35367 3.6745 5.35367C3.47559 5.35367 3.28482 5.43268 3.14417 5.57334C3.00352 5.71399 2.9245 5.90475 2.9245 6.10367V9.85367C2.9245 10.0526 3.00352 10.2433 3.14417 10.384C3.28482 10.5246 3.47559 10.6037 3.6745 10.6037H7.4245C7.62341 10.6037 7.81418 10.5246 7.95483 10.384C8.09548 10.2433 8.1745 10.0526 8.1745 9.85367C8.1745 9.65475 8.09548 9.46399 7.95483 9.32334C7.81418 9.18268 7.62341 9.10367 7.4245 9.10367H5.26825C5.93856 8.31429 6.60606 7.57085 7.36731 6.80023C8.40968 5.75787 9.7361 5.0458 11.1808 4.75299C12.6256 4.46018 14.1246 4.59961 15.4905 5.15387C16.8565 5.70813 18.0288 6.65263 18.8611 7.86936C19.6933 9.08609 20.1485 10.5211 20.1698 11.9951C20.1911 13.469 19.7776 14.9166 18.9809 16.1569C18.1843 17.3972 17.0397 18.3752 15.6904 18.9687C14.341 19.5623 12.8467 19.745 11.3941 19.4941C9.94148 19.2432 8.59502 18.5698 7.52294 17.558C7.45129 17.4903 7.367 17.4374 7.27489 17.4023C7.18278 17.3671 7.08465 17.3505 6.9861 17.3532C6.88755 17.356 6.79052 17.3782 6.70054 17.4185C6.61056 17.4588 6.5294 17.5164 6.46169 17.588C6.39397 17.6597 6.34104 17.744 6.3059 17.8361C6.27076 17.9282 6.25411 18.0263 6.2569 18.1249C6.25968 18.2234 6.28185 18.3205 6.32214 18.4104C6.36242 18.5004 6.42003 18.5816 6.49169 18.6493C7.55992 19.6574 8.85864 20.3887 10.2745 20.7794C11.6904 21.1701 13.1803 21.2084 14.6144 20.8908C16.0484 20.5733 17.383 19.9096 18.5015 18.9577C19.6201 18.0058 20.4887 16.7945 21.0315 15.4297C21.5743 14.0649 21.7748 12.588 21.6156 11.1279C21.4563 9.66778 20.9422 8.26881 20.1179 7.0531C19.2937 5.83739 18.1844 4.84189 16.887 4.15346C15.5895 3.46504 14.1433 3.10462 12.6745 3.10367Z" fill="white"/>
</svg>
