<svg width="25" height="25" viewBox="0 0 25 25" fill="none" xmlns="http://www.w3.org/2000/svg">
<path d="M21.2348 10.2924L13.7348 2.79242C13.4535 2.51132 13.0722 2.35342 12.6745 2.35342C12.2768 2.35342 11.8955 2.51132 11.6142 2.79242L4.11419 10.2924C3.97422 10.4313 3.86327 10.5967 3.78779 10.7789C3.71231 10.9611 3.6738 11.1565 3.6745 11.3537V20.3537C3.6745 20.5526 3.75352 20.7433 3.89417 20.884C4.03482 21.0246 4.22559 21.1037 4.4245 21.1037H10.4245C10.6234 21.1037 10.8142 21.0246 10.9548 20.884C11.0955 20.7433 11.1745 20.5526 11.1745 20.3537V15.1037H14.1745V20.3537C14.1745 20.5526 14.2535 20.7433 14.3942 20.884C14.5348 21.0246 14.7256 21.1037 14.9245 21.1037H20.9245C21.1234 21.1037 21.3142 21.0246 21.4548 20.884C21.5955 20.7433 21.6745 20.5526 21.6745 20.3537V11.3537C21.6752 11.1565 21.6367 10.9611 21.5612 10.7789C21.4857 10.5967 21.3748 10.4313 21.2348 10.2924ZM20.1745 19.6037H15.6745V14.3537C15.6745 14.1548 15.5955 13.964 15.4548 13.8233C15.3142 13.6827 15.1234 13.6037 14.9245 13.6037H10.4245C10.2256 13.6037 10.0348 13.6827 9.89417 13.8233C9.75352 13.964 9.6745 14.1548 9.6745 14.3537V19.6037H5.1745V11.3537L12.6745 3.85367L20.1745 11.3537V19.6037Z" fill="#FAFAFA"/>
</svg>
