<svg width="25" height="25" viewBox="0 0 25 25" fill="none" xmlns="http://www.w3.org/2000/svg">
<path d="M20.9245 4.60367H4.4245C4.02667 4.60367 3.64514 4.7617 3.36384 5.04301C3.08253 5.32431 2.9245 5.70584 2.9245 6.10367V21.1037C2.92277 21.3897 3.00368 21.6702 3.15752 21.9113C3.31136 22.1525 3.53157 22.344 3.79168 22.463C3.9899 22.5553 4.20585 22.6033 4.4245 22.6037C4.77662 22.6028 5.11707 22.4773 5.38543 22.2493L5.39387 22.2427L8.45575 19.6037H20.9245C21.3223 19.6037 21.7039 19.4456 21.9852 19.1643C22.2665 18.883 22.4245 18.5015 22.4245 18.1037V6.10367C22.4245 5.70584 22.2665 5.32431 21.9852 5.04301C21.7039 4.7617 21.3223 4.60367 20.9245 4.60367ZM20.9245 18.1037H8.1745C7.99441 18.1038 7.82037 18.1687 7.68418 18.2865L4.4245 21.1037V6.10367H20.9245V18.1037Z" fill="white"/>
</svg>
