<svg width="25" height="25" viewBox="0 0 25 25" fill="none" xmlns="http://www.w3.org/2000/svg">
<path d="M21.4545 6.93835C21.278 7.02978 21.0724 7.04736 20.8829 6.98724C20.6934 6.92711 20.5355 6.79421 20.4439 6.61773C19.728 5.2035 18.6445 4.0082 17.307 3.15741C17.2237 3.10484 17.1515 3.03637 17.0946 2.95591C17.0377 2.87544 16.9973 2.78456 16.9755 2.68846C16.9537 2.59235 16.9511 2.49289 16.9678 2.39577C16.9845 2.29865 17.0201 2.20576 17.0727 2.12241C17.1252 2.03907 17.1937 1.96689 17.2742 1.91C17.3546 1.85312 17.4455 1.81264 17.5416 1.79087C17.6377 1.76911 17.7372 1.76649 17.8343 1.78316C17.9314 1.79983 18.0243 1.83547 18.1077 1.88804C19.6664 2.88604 20.932 4.28013 21.7752 5.92773C21.8666 6.10428 21.8842 6.3099 21.8241 6.49941C21.7639 6.68892 21.631 6.8468 21.4545 6.93835ZM3.80236 7.02273C3.93976 7.02267 4.07451 6.98487 4.19189 6.91345C4.30927 6.84202 4.40478 6.73973 4.46798 6.61773C5.18386 5.2035 6.26744 4.0082 7.60486 3.15741C7.77319 3.05125 7.89245 2.88256 7.9364 2.68846C7.98036 2.49436 7.9454 2.29074 7.83923 2.12241C7.73306 1.95408 7.56438 1.83483 7.37028 1.79087C7.17618 1.74692 6.97256 1.78187 6.80423 1.88804C5.24555 2.88604 3.9799 4.28013 3.13673 5.92773C3.07752 6.04203 3.04872 6.16964 3.05311 6.2983C3.0575 6.42695 3.09493 6.55231 3.16179 6.6623C3.22866 6.7723 3.32271 6.86324 3.4349 6.92636C3.54709 6.98949 3.67363 7.02267 3.80236 7.02273ZM21.2492 16.7671C21.3821 16.995 21.4525 17.2538 21.4535 17.5176C21.4544 17.7813 21.3857 18.0407 21.2544 18.2694C21.1231 18.4982 20.9338 18.6883 20.7056 18.8205C20.4774 18.9528 20.2183 19.0225 19.9545 19.0227H16.1295C15.9574 19.8704 15.4975 20.6326 14.8277 21.18C14.158 21.7274 13.3196 22.0265 12.4545 22.0265C11.5895 22.0265 10.7511 21.7274 10.0814 21.18C9.41159 20.6326 8.95168 19.8704 8.77955 19.0227H4.95455C4.69094 19.0222 4.43213 18.9522 4.20418 18.8198C3.97623 18.6875 3.78719 18.4973 3.65611 18.2686C3.52503 18.0399 3.45653 17.7807 3.45752 17.5171C3.4585 17.2535 3.52894 16.9948 3.66173 16.7671C4.50642 15.3093 4.95455 13.2365 4.95455 10.7727C4.95455 8.7836 5.74472 6.87595 7.15125 5.46943C8.55777 4.0629 10.4654 3.27273 12.4545 3.27273C14.4437 3.27273 16.3513 4.0629 17.7578 5.46943C19.1644 6.87595 19.9545 8.7836 19.9545 10.7727C19.9545 13.2355 20.4027 15.3084 21.2492 16.7671ZM14.5752 19.0227H10.3339C10.4893 19.4609 10.7766 19.8402 11.1564 20.1085C11.5361 20.3767 11.9896 20.5208 12.4545 20.5208C12.9195 20.5208 13.373 20.3767 13.7527 20.1085C14.1325 19.8402 14.4198 19.4609 14.5752 19.0227ZM19.9545 17.5227C18.957 15.8099 18.4545 13.5393 18.4545 10.7727C18.4545 9.18143 17.8224 7.6553 16.6972 6.53009C15.572 5.40487 14.0458 4.77273 12.4545 4.77273C10.8632 4.77273 9.33712 5.40487 8.21191 6.53009C7.08669 7.6553 6.45455 9.18143 6.45455 10.7727C6.45455 13.5402 5.95017 15.8109 4.95455 17.5227H19.9545Z" fill="#0F0F0F"/>
</svg>
