<svg width="25" height="25" viewBox="0 0 25 25" fill="none" xmlns="http://www.w3.org/2000/svg">
<path d="M20.2834 4.36588H5.28343C4.8856 4.36588 4.50407 4.52391 4.22277 4.80522C3.94146 5.08652 3.78343 5.46805 3.78343 5.86588V11.1159C3.78343 16.0584 6.17593 19.0537 8.18312 20.6962C10.345 22.4643 12.4956 23.0643 12.5894 23.0896C12.7183 23.1247 12.8542 23.1247 12.9831 23.0896C13.0769 23.0643 15.2247 22.4643 17.3894 20.6962C19.3909 19.0537 21.7834 16.0584 21.7834 11.1159V5.86588C21.7834 5.46805 21.6254 5.08652 21.3441 4.80522C21.0628 4.52391 20.6813 4.36588 20.2834 4.36588ZM20.2834 11.1159C20.2834 14.5912 19.0028 17.4121 16.4772 19.499C15.3778 20.4044 14.1274 21.1089 12.7834 21.5802C11.4571 21.1171 10.2221 20.4251 9.13468 19.5356C6.57905 17.4449 5.28343 14.6128 5.28343 11.1159V5.86588H20.2834V11.1159ZM8.5028 13.8965C8.36207 13.7558 8.28301 13.5649 8.28301 13.3659C8.28301 13.1669 8.36207 12.976 8.5028 12.8352C8.64353 12.6945 8.83441 12.6155 9.03343 12.6155C9.23245 12.6155 9.42332 12.6945 9.56405 12.8352L11.2834 14.5556L16.0028 9.83525C16.0725 9.76557 16.1552 9.71029 16.2463 9.67258C16.3373 9.63487 16.4349 9.61546 16.5334 9.61546C16.632 9.61546 16.7296 9.63487 16.8206 9.67258C16.9116 9.71029 16.9944 9.76557 17.0641 9.83525C17.1337 9.90493 17.189 9.98766 17.2267 10.0787C17.2644 10.1697 17.2838 10.2673 17.2838 10.3659C17.2838 10.4644 17.2644 10.562 17.2267 10.653C17.189 10.7441 17.1337 10.8268 17.0641 10.8965L11.8141 16.1465C11.7444 16.2162 11.6617 16.2716 11.5706 16.3093C11.4796 16.347 11.382 16.3665 11.2834 16.3665C11.1849 16.3665 11.0873 16.347 10.9962 16.3093C10.9052 16.2716 10.8225 16.2162 10.7528 16.1465L8.5028 13.8965Z" fill="#FAFAFA"/>
</svg>
