<svg width="25" height="25" viewBox="0 0 25 25" fill="none" xmlns="http://www.w3.org/2000/svg">
<path d="M22.3233 19.9787C20.8954 17.5102 18.6951 15.7402 16.1273 14.9012C17.3975 14.145 18.3843 12.9929 18.9363 11.6216C19.4882 10.2503 19.5748 8.7358 19.1827 7.31057C18.7906 5.88534 17.9415 4.62823 16.7657 3.73229C15.59 2.83635 14.1527 2.35112 12.6745 2.35112C11.1963 2.35112 9.759 2.83635 8.58328 3.73229C7.40755 4.62823 6.55843 5.88534 6.16632 7.31057C5.77421 8.7358 5.86078 10.2503 6.41274 11.6216C6.9647 12.9929 7.95153 14.145 9.22169 14.9012C6.65388 15.7393 4.45356 17.5093 3.02575 19.9787C2.97339 20.064 2.93866 20.159 2.92361 20.2581C2.90856 20.3571 2.91349 20.4581 2.93812 20.5552C2.96274 20.6523 3.00656 20.7434 3.06699 20.8233C3.12742 20.9032 3.20324 20.9701 3.28996 21.0202C3.37669 21.0703 3.47257 21.1025 3.57195 21.115C3.67132 21.1274 3.77219 21.1198 3.86858 21.0926C3.96498 21.0655 4.05496 21.0193 4.13321 20.9567C4.21146 20.8942 4.2764 20.8167 4.32419 20.7287C6.09044 17.6762 9.21231 15.8537 12.6745 15.8537C16.1367 15.8537 19.2586 17.6762 21.0248 20.7287C21.0726 20.8167 21.1375 20.8942 21.2158 20.9567C21.294 21.0193 21.384 21.0655 21.4804 21.0926C21.5768 21.1198 21.6777 21.1274 21.7771 21.115C21.8764 21.1025 21.9723 21.0703 22.059 21.0202C22.1458 20.9701 22.2216 20.9032 22.282 20.8233C22.3424 20.7434 22.3863 20.6523 22.4109 20.5552C22.4355 20.4581 22.4404 20.3571 22.4254 20.2581C22.4103 20.159 22.3756 20.064 22.3233 19.9787ZM7.4245 9.10367C7.4245 8.06532 7.73241 7.05029 8.30929 6.18693C8.88616 5.32357 9.7061 4.65066 10.6654 4.2533C11.6247 3.85594 12.6803 3.75198 13.6987 3.95455C14.7171 4.15712 15.6526 4.65713 16.3868 5.39136C17.121 6.12559 17.6211 7.06105 17.8236 8.07945C18.0262 9.09785 17.9222 10.1534 17.5249 11.1128C17.1275 12.0721 16.4546 12.892 15.5912 13.4689C14.7279 14.0458 13.7129 14.3537 12.6745 14.3537C11.2826 14.3522 9.94808 13.7986 8.96384 12.8143C7.97959 11.8301 7.42599 10.4956 7.4245 9.10367Z" fill="white"/>
</svg>
