<svg width="25" height="25" viewBox="0 0 25 25" fill="none" xmlns="http://www.w3.org/2000/svg">
<path d="M12.6745 7.60368C11.7845 7.60368 10.9145 7.8676 10.1744 8.36207C9.43441 8.85653 8.85764 9.55934 8.51704 10.3816C8.17645 11.2039 8.08734 12.1087 8.26097 12.9816C8.4346 13.8545 8.86319 14.6563 9.49252 15.2857C10.1219 15.915 10.9237 16.3436 11.7966 16.5172C12.6695 16.6908 13.5743 16.6017 14.3966 16.2611C15.2188 15.9205 15.9216 15.3438 16.4161 14.6037C16.9106 13.8637 17.1745 12.9937 17.1745 12.1037C17.1733 10.9106 16.6988 9.76672 15.8551 8.92307C15.0115 8.07943 13.8676 7.60492 12.6745 7.60368ZM12.6745 15.1037C12.0812 15.1037 11.5011 14.9277 11.0078 14.5981C10.5144 14.2684 10.1299 13.7999 9.90286 13.2517C9.6758 12.7036 9.61639 12.1004 9.73215 11.5184C9.8479 10.9365 10.1336 10.4019 10.5532 9.98236C10.9727 9.5628 11.5073 9.27708 12.0892 9.16132C12.6712 9.04557 13.2744 9.10498 13.8226 9.33204C14.3707 9.55911 14.8393 9.94362 15.1689 10.437C15.4986 10.9303 15.6745 11.5103 15.6745 12.1037C15.6745 12.8993 15.3584 13.6624 14.7958 14.225C14.2332 14.7876 13.4702 15.1037 12.6745 15.1037ZM22.9814 10.1546C22.9605 10.049 22.9171 9.94913 22.8542 9.86177C22.7912 9.77442 22.7103 9.70163 22.6167 9.64837L19.8201 8.05462L19.8089 4.90274C19.8085 4.79419 19.7846 4.68701 19.7388 4.5886C19.693 4.49019 19.6264 4.40289 19.5436 4.33274C18.5291 3.47465 17.3609 2.81706 16.1011 2.39493C16.0019 2.36135 15.8967 2.34892 15.7924 2.35845C15.6881 2.36798 15.5869 2.39924 15.4954 2.45024L12.6745 4.02712L9.85075 2.44743C9.75921 2.39615 9.65792 2.36464 9.55344 2.35495C9.44896 2.34526 9.3436 2.3576 9.24419 2.39118C7.98527 2.81639 6.8184 3.47649 5.80544 4.33649C5.72272 4.40654 5.65617 4.49369 5.61037 4.59192C5.56457 4.69016 5.5406 4.79716 5.54013 4.90556L5.52606 8.06024L2.7295 9.65399C2.63594 9.70726 2.55494 9.78004 2.49202 9.8674C2.42909 9.95475 2.38571 10.0546 2.36482 10.1602C2.10887 11.4464 2.10887 12.7704 2.36482 14.0565C2.38571 14.1621 2.42909 14.262 2.49202 14.3493C2.55494 14.4367 2.63594 14.5095 2.7295 14.5627L5.52606 16.1565L5.53731 19.3084C5.53765 19.4169 5.56155 19.5241 5.60736 19.6225C5.65317 19.7209 5.71979 19.8082 5.80263 19.8784C6.81707 20.7365 7.98527 21.3941 9.24513 21.8162C9.34434 21.8498 9.44949 21.8622 9.5538 21.8527C9.65811 21.8431 9.75926 21.8119 9.85075 21.7609L12.6745 20.1802L15.4983 21.7599C15.61 21.8222 15.736 21.8545 15.8639 21.8537C15.9458 21.8537 16.0272 21.8404 16.1048 21.8143C17.3636 21.3897 18.5305 20.7302 19.5436 19.8709C19.6263 19.8008 19.6928 19.7137 19.7386 19.6154C19.7844 19.5172 19.8084 19.4102 19.8089 19.3018L19.8229 16.1471L22.6195 14.5534C22.7131 14.5001 22.7941 14.4273 22.857 14.34C22.9199 14.2526 22.9633 14.1527 22.9842 14.0471C23.2387 12.762 23.2378 11.4394 22.9814 10.1546ZM21.5751 13.4274L18.8967 14.9509C18.7793 15.0176 18.6822 15.1148 18.6154 15.2321C18.5611 15.3259 18.5039 15.4252 18.4458 15.519C18.3713 15.6372 18.3317 15.774 18.3314 15.9137L18.3173 18.9371C17.5974 19.5025 16.7953 19.9546 15.9389 20.2777L13.237 18.7721C13.1248 18.7101 12.9986 18.6778 12.8704 18.6784H12.8526C12.7392 18.6784 12.6248 18.6784 12.5114 18.6784C12.3772 18.675 12.2446 18.7074 12.127 18.7721L9.42325 20.2815C8.56498 19.9608 7.76071 19.5109 7.03825 18.9474L7.02794 15.9287C7.02748 15.7887 6.98786 15.6517 6.91357 15.5331C6.85544 15.4393 6.79825 15.3456 6.74481 15.2462C6.67856 15.127 6.5814 15.0279 6.46356 14.9593L3.78232 13.4321C3.64356 12.5544 3.64356 11.6604 3.78232 10.7827L6.45606 9.25649C6.57342 9.18976 6.67059 9.0926 6.73731 8.97524C6.79169 8.88149 6.84888 8.78212 6.907 8.68837C6.98141 8.57014 7.02104 8.43337 7.02138 8.29368L7.03544 5.27024C7.75537 4.70488 8.55743 4.25279 9.41388 3.92962L12.112 5.43524C12.2294 5.50033 12.3622 5.53271 12.4964 5.52899C12.6098 5.52899 12.7242 5.52899 12.8376 5.52899C12.9718 5.53235 13.1044 5.49999 13.222 5.43524L15.9258 3.92587C16.784 4.24656 17.5883 4.69644 18.3108 5.25993L18.3211 8.27868C18.3215 8.41864 18.3611 8.55569 18.4354 8.67431C18.4936 8.76806 18.5508 8.86181 18.6042 8.96118C18.6704 9.08035 18.7676 9.17945 18.8854 9.24806L21.5667 10.7752C21.7073 11.6536 21.7089 12.5486 21.5714 13.4274H21.5751Z" fill="white"/>
</svg>
