<svg width="25" height="25" viewBox="0 0 25 25" fill="none" xmlns="http://www.w3.org/2000/svg">
<path d="M17.3645 15.0769C16.8642 15.0767 16.3689 15.1769 15.908 15.3716C15.4471 15.5663 15.03 15.8515 14.6813 16.2103L10.3595 13.4325C10.6994 12.5607 10.6994 11.593 10.3595 10.7212L14.6813 7.94342C15.3305 8.60841 16.2035 9.00866 17.131 9.06657C18.0585 9.12448 18.9745 8.83594 19.7014 8.25687C20.4282 7.6778 20.9142 6.84947 21.065 5.93247C21.2158 5.01547 21.0208 4.07513 20.5177 3.29377C20.0146 2.5124 19.2393 1.94567 18.3421 1.70346C17.4449 1.46125 16.4897 1.56081 15.6617 1.98284C14.8338 2.40487 14.192 3.11931 13.8609 3.98763C13.5297 4.85595 13.5328 5.8163 13.8695 6.68248L9.5476 9.46029C9.02716 8.92599 8.35921 8.55902 7.62913 8.4063C6.89906 8.25358 6.14002 8.32205 5.44906 8.60295C4.75809 8.88385 4.16659 9.36442 3.75017 9.98323C3.33375 10.602 3.11132 11.331 3.11132 12.0769C3.11132 12.8227 3.33375 13.5517 3.75017 14.1705C4.16659 14.7893 4.75809 15.2699 5.44906 15.5508C6.14002 15.8317 6.89906 15.9001 7.62913 15.7474C8.35921 15.5947 9.02716 15.2277 9.5476 14.6934L13.8695 17.4712C13.5799 18.218 13.5371 19.0378 13.7472 19.8107C13.9573 20.5835 14.4094 21.2688 15.0371 21.7662C15.6649 22.2635 16.4354 22.5468 17.2358 22.5746C18.0363 22.6024 18.8246 22.3731 19.4853 21.9205C20.146 21.4678 20.6444 20.8155 20.9076 20.0591C21.1708 19.3027 21.1849 18.4818 20.9478 17.7168C20.7107 16.9518 20.235 16.2828 19.5902 15.8077C18.9453 15.3327 18.1654 15.0766 17.3645 15.0769ZM17.3645 3.07686C17.8095 3.07686 18.2445 3.20882 18.6145 3.45605C18.9845 3.70328 19.2729 4.05468 19.4432 4.46582C19.6135 4.87695 19.6581 5.32935 19.5712 5.76581C19.4844 6.20227 19.2701 6.60318 18.9555 6.91785C18.6408 7.23251 18.2399 7.44681 17.8034 7.53362C17.367 7.62044 16.9146 7.57588 16.5034 7.40558C16.0923 7.23529 15.7409 6.9469 15.4937 6.57689C15.2464 6.20688 15.1145 5.77186 15.1145 5.32686C15.1145 4.73012 15.3515 4.15782 15.7735 3.73587C16.1954 3.31391 16.7677 3.07686 17.3645 3.07686ZM6.86447 14.3269C6.41946 14.3269 5.98445 14.1949 5.61444 13.9477C5.24443 13.7004 4.95604 13.349 4.78574 12.9379C4.61545 12.5268 4.57089 12.0744 4.65771 11.6379C4.74452 11.2014 4.95881 10.8005 5.27348 10.4859C5.58815 10.1712 5.98906 9.95691 6.42552 9.87009C6.86198 9.78327 7.31438 9.82783 7.72551 9.99813C8.13664 10.1684 8.48804 10.4568 8.73528 10.8268C8.98251 11.1968 9.11447 11.6318 9.11447 12.0769C9.11447 12.6736 8.87742 13.2459 8.45546 13.6678C8.03351 14.0898 7.46121 14.3269 6.86447 14.3269ZM17.3645 21.0769C16.9195 21.0769 16.4845 20.9449 16.1144 20.6977C15.7444 20.4504 15.456 20.099 15.2857 19.6879C15.1154 19.2768 15.0709 18.8244 15.1577 18.3879C15.2445 17.9514 15.4588 17.5505 15.7735 17.2359C16.0882 16.9212 16.4891 16.7069 16.9255 16.6201C17.362 16.5333 17.8144 16.5778 18.2255 16.7481C18.6366 16.9184 18.988 17.2068 19.2353 17.5768C19.4825 17.9468 19.6145 18.3818 19.6145 18.8269C19.6145 19.4236 19.3774 19.9959 18.9555 20.4178C18.5335 20.8398 17.9612 21.0769 17.3645 21.0769Z" fill="#0F0F0F"/>
</svg>
