<svg width="25" height="25" viewBox="0 0 25 25" fill="none" xmlns="http://www.w3.org/2000/svg">
<path d="M23.2876 9.88393C23.1938 9.59567 23.0168 9.34161 22.7789 9.15376C22.541 8.96591 22.2529 8.85266 21.9507 8.8283L16.4195 8.38205L14.2838 3.21736C14.1683 2.93594 13.9718 2.69522 13.7191 2.5258C13.4665 2.35639 13.1691 2.26593 12.8649 2.26593C12.5607 2.26593 12.2634 2.35639 12.0108 2.5258C11.7581 2.69522 11.5615 2.93594 11.446 3.21736L9.31228 8.38111L3.77822 8.8283C3.47557 8.8539 3.18721 8.96824 2.94926 9.15699C2.71131 9.34575 2.53435 9.60053 2.44056 9.88941C2.34677 10.1783 2.34031 10.4884 2.422 10.781C2.50369 11.0735 2.66989 11.3354 2.89978 11.5339L7.11853 15.1742L5.83322 20.6174C5.76134 20.9131 5.77894 21.2235 5.88379 21.5092C5.98864 21.7949 6.17601 22.043 6.42212 22.222C6.66823 22.401 6.96197 22.5028 7.26607 22.5146C7.57017 22.5263 7.8709 22.4475 8.13009 22.288L12.8645 19.3742L17.6017 22.288C17.8609 22.4456 18.1611 22.5229 18.4642 22.5103C18.7674 22.4976 19.06 22.3956 19.3053 22.217C19.5506 22.0384 19.7375 21.7912 19.8426 21.5065C19.9476 21.2219 19.9661 20.9125 19.8957 20.6174L18.6057 15.1733L22.8245 11.533C23.0562 11.3348 23.2239 11.0723 23.3064 10.7788C23.3888 10.4852 23.3823 10.1738 23.2876 9.88393ZM21.8495 10.3967L17.2838 14.3342C17.1797 14.424 17.1023 14.5406 17.0599 14.6714C17.0176 14.8022 17.0121 14.9421 17.0438 15.0758L18.4388 20.9633C18.4425 20.9714 18.4428 20.9806 18.4398 20.989C18.4369 20.9974 18.4308 21.0043 18.4229 21.0083C18.406 21.0214 18.4013 21.0186 18.3873 21.0083L13.2573 17.8536C13.1391 17.781 13.0032 17.7425 12.8645 17.7425C12.7258 17.7425 12.5898 17.781 12.4717 17.8536L7.34166 21.0102C7.32759 21.0186 7.32384 21.0214 7.30603 21.0102C7.29812 21.0061 7.29206 20.9992 7.28909 20.9909C7.28613 20.9825 7.28649 20.9733 7.29009 20.9652L8.68509 15.0777C8.71689 14.9439 8.71132 14.804 8.66899 14.6733C8.62667 14.5425 8.54921 14.4259 8.44509 14.3361L3.87947 10.3986C3.86822 10.3892 3.85791 10.3808 3.86728 10.3517C3.87666 10.3227 3.88416 10.3264 3.89822 10.3246L9.89072 9.8408C10.0282 9.82901 10.1597 9.77954 10.2708 9.69783C10.382 9.61613 10.4685 9.50534 10.5207 9.37768L12.8288 3.78924C12.8363 3.7733 12.8392 3.7658 12.8617 3.7658C12.8842 3.7658 12.887 3.7733 12.8945 3.78924L15.2082 9.37768C15.261 9.50539 15.348 9.61605 15.4596 9.69745C15.5713 9.77884 15.7033 9.8278 15.841 9.83893L21.8335 10.3227C21.8476 10.3227 21.856 10.3227 21.8645 10.3499C21.8729 10.3771 21.8645 10.3874 21.8495 10.3967Z" fill="#0F0F0F"/>
</svg>
