<svg width="25" height="25" viewBox="0 0 25 25" fill="none" xmlns="http://www.w3.org/2000/svg">
<path d="M13.3888 17.5886C13.3888 17.8111 13.3229 18.0286 13.1993 18.2136C13.0756 18.3986 12.8999 18.5428 12.6944 18.628C12.4888 18.7131 12.2626 18.7354 12.0444 18.692C11.8261 18.6486 11.6257 18.5414 11.4684 18.3841C11.311 18.2268 11.2039 18.0263 11.1605 17.8081C11.1171 17.5898 11.1393 17.3636 11.2245 17.1581C11.3096 16.9525 11.4538 16.7768 11.6388 16.6532C11.8238 16.5296 12.0413 16.4636 12.2638 16.4636C12.5622 16.4636 12.8484 16.5821 13.0593 16.7931C13.2703 17.0041 13.3888 17.2902 13.3888 17.5886ZM12.2638 7.46359C10.1957 7.46359 8.51385 8.97765 8.51385 10.8386V11.2136C8.51385 11.4125 8.59287 11.6033 8.73352 11.7439C8.87417 11.8846 9.06494 11.9636 9.26385 11.9636C9.46276 11.9636 9.65353 11.8846 9.79418 11.7439C9.93483 11.6033 10.0138 11.4125 10.0138 11.2136V10.8386C10.0138 9.80734 11.0235 8.96359 12.2638 8.96359C13.5042 8.96359 14.5138 9.80734 14.5138 10.8386C14.5138 11.8698 13.5042 12.7136 12.2638 12.7136C12.0649 12.7136 11.8742 12.7926 11.7335 12.9333C11.5929 13.0739 11.5138 13.2647 11.5138 13.4636V14.2136C11.5138 14.4125 11.5929 14.6033 11.7335 14.7439C11.8742 14.8846 12.0649 14.9636 12.2638 14.9636C12.4628 14.9636 12.6535 14.8846 12.7942 14.7439C12.9348 14.6033 13.0138 14.4125 13.0138 14.2136V14.1461C14.7238 13.832 16.0138 12.468 16.0138 10.8386C16.0138 8.97765 14.332 7.46359 12.2638 7.46359ZM22.0138 12.7136C22.0138 14.642 21.442 16.527 20.3707 18.1304C19.2993 19.7338 17.7766 20.9835 15.995 21.7214C14.2134 22.4594 12.253 22.6525 10.3617 22.2762C8.4704 21.9 6.73312 20.9714 5.36956 19.6079C4.006 18.2443 3.0774 16.507 2.70119 14.6157C2.32499 12.7244 2.51807 10.764 3.25602 8.98243C3.99398 7.20085 5.24366 5.67811 6.84704 4.60676C8.45042 3.53542 10.3355 2.96359 12.2638 2.96359C14.8489 2.96632 17.3272 3.99443 19.1551 5.82232C20.983 7.6502 22.0111 10.1286 22.0138 12.7136ZM20.5138 12.7136C20.5138 11.0819 20.03 9.48684 19.1235 8.13014C18.217 6.77343 16.9285 5.71601 15.421 5.09159C13.9135 4.46716 12.2547 4.30379 10.6544 4.62211C9.05401 4.94044 7.584 5.72618 6.43022 6.87996C5.27644 8.03374 4.4907 9.50375 4.17237 11.1041C3.85404 12.7044 4.01742 14.3632 4.64184 15.8707C5.26627 17.3782 6.32369 18.6667 7.6804 19.5732C9.0371 20.4797 10.6322 20.9636 12.2638 20.9636C14.4511 20.9611 16.5481 20.0911 18.0947 18.5445C19.6414 16.9978 20.5114 14.9009 20.5138 12.7136Z" fill="white"/>
</svg>
