<svg width="25" height="25" viewBox="0 0 25 25" fill="none" xmlns="http://www.w3.org/2000/svg">
<path d="M21.6745 4.60367V19.6037C21.6745 20.0015 21.5165 20.383 21.2352 20.6643C20.9539 20.9456 20.5723 21.1037 20.1745 21.1037H13.4245C13.2256 21.1037 13.0348 21.0247 12.8942 20.884C12.7535 20.7433 12.6745 20.5526 12.6745 20.3537C12.6745 20.1548 12.7535 19.964 12.8942 19.8233C13.0348 19.6827 13.2256 19.6037 13.4245 19.6037H20.1745V4.60367H5.1745V13.6037C5.1745 13.8026 5.09548 13.9933 4.95483 14.134C4.81417 14.2747 4.62341 14.3537 4.4245 14.3537C4.22558 14.3537 4.03482 14.2747 3.89417 14.134C3.75351 13.9933 3.6745 13.8026 3.6745 13.6037V4.60367C3.6745 4.20584 3.83253 3.82431 4.11384 3.54301C4.39514 3.2617 4.77667 3.10367 5.1745 3.10367H20.1745C20.5723 3.10367 20.9539 3.2617 21.2352 3.54301C21.5165 3.82431 21.6745 4.20584 21.6745 4.60367ZM12.4551 14.573C12.3855 14.5033 12.3028 14.448 12.2117 14.4102C12.1207 14.3725 12.0231 14.3531 11.9245 14.3531C11.8259 14.3531 11.7283 14.3725 11.6373 14.4102C11.5462 14.448 11.4635 14.5033 11.3939 14.573L6.6745 19.2934L4.95512 17.573C4.88544 17.5034 4.80271 17.4481 4.71167 17.4104C4.62062 17.3727 4.52304 17.3533 4.4245 17.3533C4.32595 17.3533 4.22837 17.3727 4.13732 17.4104C4.04628 17.4481 3.96355 17.5034 3.89387 17.573C3.82419 17.6427 3.76891 17.7255 3.7312 17.8165C3.69349 17.9075 3.67408 18.0051 3.67408 18.1037C3.67408 18.2022 3.69349 18.2998 3.7312 18.3908C3.76891 18.4819 3.82419 18.5646 3.89387 18.6343L6.14387 20.8843C6.21353 20.954 6.29624 21.0093 6.38729 21.0471C6.47834 21.0848 6.57594 21.1043 6.6745 21.1043C6.77306 21.1043 6.87065 21.0848 6.9617 21.0471C7.05275 21.0093 7.13547 20.954 7.20512 20.8843L12.4551 15.6343C12.5249 15.5646 12.5802 15.4819 12.6179 15.3909C12.6557 15.2998 12.6751 15.2022 12.6751 15.1037C12.6751 15.0051 12.6557 14.9075 12.6179 14.8165C12.5802 14.7254 12.5249 14.6427 12.4551 14.573Z" fill="white"/>
</svg>
